# AST/ASF file generated using VICON BodyLanguage
# -----------------------------------------------
:version 1.10
:name VICON
:units
  mass 1.0
  length 0.45
  angle deg
:documentation
   .ast/.asf automatically generated from VICON data using
   VICON BodyBuilder and BodyLanguage model FoxedUp or BRILLIANT.MOD
:root
   order TX TY TZ RX RY RZ
   axis XYZ
   position 0 0 0  
   orientation 0 0 0 
:bonedata
  begin
     id 1 
     name lhipjoint
     direction 0.521452 -0.77106 0.36545 
     length 2.0933 
     axis 0 0 0  XYZ
  end
  begin
     id 2 
     name lfemur
     direction 0.34202 -0.939693 0  
     length 6.83441  
     axis 0 0 20  XYZ
    dof rx ry rz
    limits (-160.0 20.0)
           (-70.0 70.0)
           (-60.0 70.0)
  end
  begin
     id 3 
     name ltibia
     direction 0.34202 -0.939693 0   
     length 7.28749   
     axis 0 0 20   XYZ
    dof rx
    limits (-10.0 170.0)
  end
  begin
     id 4 
     name lfoot
     direction 0.100608 -0.276418 0.955757   
     length 1.52195   
     axis -90 7.62852e-016 20   XYZ
    dof rx rz
    limits (-45.0 90.0)
           (-70.0 20.0)
  end
  begin
     id 5 
     name ltoes
     direction 1.53558e-011 -4.21907e-011 1   
     length 0.770459   
     axis -90 7.62852e-016 20   XYZ
    dof rx
    limits (-90.0 20.0)
  end
  begin
     id 6 
     name rhipjoint
     direction -0.488071 -0.788702 0.373812   
     length 2.04648  
     axis 0 0 0  XYZ 
  end
  begin
     id 7 
     name rfemur
     direction -0.34202 -0.939693 0   
     length 6.92583   
     axis 0 0 -20   XYZ
    dof rx ry rz
    limits (-160.0 20.0)
           (-70.0 70.0)
           (-70.0 60.0)
  end
  begin
     id 8 
     name rtibia
     direction -0.34202 -0.939693 0   
     length 7.41043   
     axis 0 0 -20   XYZ
    dof rx
    limits (-10.0 170.0)
 end
 begin
     id 9 
     name rfoot
     direction -0.0784433 -0.215521 0.973343   
     length 1.67708  
     axis -90 -7.62852e-016 -20   XYZ
    dof rx rz
    limits (-45.0 90.0)
           (-20.0 70.0)
  end
  begin
     id 10 
     name rtoes
     direction -1.53551e-011 -4.21842e-011 1   
     length 0.849787   
     axis -90 -7.62852e-016 -20   XYZ
    dof rx
    limits (-90.0 20.0)
  end
  begin
     id 11 
     name lowerback
     direction -0.0122332 0.997575 -0.0685192   
     length 1.98724   
     axis 0 0 0   XYZ
    dof rx ry rz
    limits (-20.0 45.0)
           (-30.0 30.0)
           (-30.0 30.0)
  end
  begin
     id 12 
     name upperback
     direction 0.0182347 0.999724 -0.0148421   
     length 1.99029   
     axis 0 0 0   XYZ
    dof rx ry rz
    limits (-20.0 45.0)
           (-30.0 30.0)
           (-30.0 30.0)
  end
  begin
     id 13 
     name thorax
     direction 0.0242908 0.99956 0.0170184   
     length 1.99573   
     axis 0 0 0   XYZ
    dof rx ry rz
    limits (-20.0 45.0)
           (-30.0 30.0)
           (-30.0 30.0)
  end
  begin
     id 14 
     name lowerneck
     direction 0.0654488 0.985533 0.156338   
     length 1.4285   
     axis 0 0 0   XYZ
    dof rx ry rz
    limits (-20.0 45.0)
           (-30.0 30.0)
           (-30.0 30.0)
  end
  begin
     id 15 
     name upperneck
     direction -0.02953 0.998556 -0.0448842   
     length 1.44709   
     axis 0 0 0   XYZ
    dof rx ry rz
    limits (-20.0 45.0)
           (-30.0 30.0)
           (-30.0 30.0)
  end
  begin
     id 16
     name head
     direction -0.0155588 0.999386 -0.0314063  
     length 1.44689  
     axis 0 0 0   XYZ
    dof rx ry rz
    limits (-20.0 45.0)
           (-30.0 30.0)
           (-30.0 30.0)
  end
  begin
     id 17 
     name lclavicle
     direction 0.968229 0.236071 -0.0824755  
     length 3.60593  
     axis 0 0 0   XYZ
    dof ry rz
    limits (-20.0 10.0)
           (0.0 20.0)
  end
  begin
     id 18 
     name lhumerus
     direction 1 -4.48968e-011 7.8138e-029   
     length 5.06035   
     axis 180 -30 -90   XYZ
    dof rx ry rz
    limits (-60.0 90.0)
           (-90.0 90.0)
           (-90.0 90.0)
  end
  begin
     id 19
     name lradius
     direction 1 -4.48967e-011 9.02887e-028   
     length 3.1478   
     axis 180 -30 -90   XYZ
    dof rx
    limits (-10.0 170.0)
  end
  begin
     id 20
     name lwrist
     direction 1 -4.48961e-011 7.20928e-028   
     length 1.5739   
     axis -5.52449e-016 90 90   XYZ
    dof ry
    limits (-180.0 0.0)
 end
  begin
     id 21 
     name lhand
     direction 1 -4.48972e-011 1.44186e-027   
     length 0.606747   
     axis -9.20027e-016 90 90   XYZ
    dof rx rz
    limits (-90.0 90.0)
           (-45.0 45.0)
  end
  begin
     id 22 
     name lfingers
     direction 1 -4.48943e-011 2.88371e-027   
     length 0.489175   
     axis -1.84005e-015 90 90   XYZ
    dof rx
    limits (0.0 90.0)
  end
  begin
     id 23
     name lthumb
     direction 0.707107 -6.34917e-011 0.707107   
     length 0.70236   
     axis -90 45 2.85299e-015   XYZ
    dof rx rz
    limits (-45.0 45.0)
           (-45.0 45.0)
  end
  begin
     id 24 
     name rclavicle
     direction -0.978165 0.207816 0.0022268   
     length 3.35425  
     axis 0 0 0   XYZ 
    dof ry rz
    limits (-10.0 20.0)
           (-20.0 0.0)
  end
  begin
     id 25 
     name rhumerus
     direction -1 -4.48964e-011 -4.02159e-027  
     length 5.12273   
     axis 180 30 90   XYZ
    dof rx ry rz
    limits (-90.0 60.0)
           (-90.0 90.0)
           (-90.0 90.0)
  end
  begin
     id 26 
     name rradius
     direction -1 -4.48966e-011 1.62746e-027   
     length 3.422   
     axis 180 30 90   XYZ
    dof rx
    limits (-10.0 170.0)
  end
  begin
     id 27 
     name rwrist
     direction -1 -4.4896e-011 7.20928e-028   
     length 1.711   
     axis -5.52449e-016 -90 -90   XYZ
    dof ry
    limits (-180.0 0.0)
  end
  begin
     id 28
     name rhand
     direction -1 -4.48979e-011 1.44186e-027   
     length 0.704599   
     axis -9.20027e-016 -90 -90   XYZ
    dof rx rz
    limits (-90.0 90.0)
           (-45.0 45.0)
  end
  begin
     id 29
     name rfingers
     direction -1 -4.48962e-011 2.88371e-027   
     length 0.568066   
     axis -1.84005e-015 -90 -90   XYZ
    dof rx
    limits (0.0 90.0)
  end
  begin
     id 30
     name rthumb
     direction -0.707107 -6.34949e-011 0.707107   
     length 0.815633   
     axis -90 -45 -2.85299e-015   XYZ
    dof rx rz
    limits (-45.0 45.0)
           (-45.0 45.0)
  end
:hierarchy
  begin
    root lhipjoint rhipjoint lowerback
    lhipjoint lfemur
    lfemur ltibia
    ltibia lfoot
    lfoot ltoes
    rhipjoint rfemur
    rfemur rtibia
    rtibia rfoot
    rfoot rtoes
    lowerback upperback
    upperback thorax
    thorax lowerneck lclavicle rclavicle
    lowerneck upperneck
    upperneck head
    lclavicle lhumerus
    lhumerus lradius
    lradius lwrist
    lwrist lhand lthumb
    lhand lfingers
    rclavicle rhumerus
    rhumerus rradius
    rradius rwrist
    rwrist rhand rthumb
    rhand rfingers
  end

#!OML:ASF E:\id_vita\Project 1\Capture day 1\Session 1\Male1.ASF
:FULLY-SPECIFIED
:DEGREES
283
root 6.78403 16.1555 -0.178004 -263.783 83.1928 -271.607
lowerback -4.0961 -2.87383 -9.60583
upperback 4.2737 -2.88611 -2.30071
thorax 7.21196 -1.78893 2.63479
lowerneck -9.81516 1.03944 11.7181
upperneck 21.4013 0.00173587 -1.76096
head 8.30147 0.896852 -2.52438
rclavicle 3.39922e-014 1.47101e-014
rhumerus -33.6501 -19.8227 -82.0636
rradius 14.4025
rwrist 18.3733
rhand -19.1333 33.0684
rfingers 7.12502
rthumb 7.1765 3.21004
lclavicle 3.39922e-014 1.47101e-014
lhumerus -1.43979 -5.72113 87.484
lradius 45.2593
lwrist 9.30076
lhand -14.3016 43.6308
lfingers 7.12502
lthumb 11.8383 73.2762
rfemur -31.9912 4.91197 12.4847
rtibia 17.2349
rfoot -10.7442 -6.29996
rtoes 9.36587
lfemur 10.1784 -2.2328 -28.7643
ltibia 15.6028
lfoot -14.384 -14.3875
ltoes -0.73006
284
root 6.94486 16.1239 -0.175459 -264.359 83.0992 -272.047
lowerback -3.69805 -3.69074 -10.373
upperback 3.34387 -4.11862 -1.51216
thorax 6.25683 -2.40179 3.80221
lowerneck -6.62861 1.37769 10.2108
upperneck 20.7259 1.23021 -2.07198
head 7.55863 1.32706 -2.26529
rclavicle 1.19271e-015 -2.22639e-014
rhumerus -34.8968 -16.1574 -81.5359
rradius 14.2782
rwrist 17.8104
rhand -19.1678 33.4676
rfingers 7.12502
rthumb 7.14319 3.60815
lclavicle 1.19271e-015 -2.22639e-014
lhumerus -3.94215 -2.5775 88.3035
lradius 45.2435
lwrist 8.70928
lhand -14.2056 43.7734
lfingers 7.12502
lthumb 11.9309 73.4135
rfemur -32.2885 3.97034 13.0083
rtibia 18.9635
rfoot -9.26461 -5.17488
rtoes 3.10537
lfemur 10.8515 -2.34409 -28.9081
ltibia 15.6287
lfoot -13.2867 -14.7746
ltoes 0.44212
285
root 7.10956 16.1163 -0.171991 -263.772 83.17 -271.331
lowerback -3.67253 -3.23397 -9.7164
upperback 3.86257 -3.47848 -1.94965
thorax 6.62541 -2.06996 3.03507
lowerneck -8.53009 1.27683 11.5067
upperneck 21.0933 0.637932 -2.14108
head 8.00279 1.13784 -2.5537
rclavicle 2.14687e-014 -1.59028e-015
rhumerus -34.292 -19.5365 -80.9135
rradius 13.6801
rwrist 19.6066
rhand -19.2513 34.1834
rfingers 7.12502
rthumb 7.06256 4.32122
lclavicle 2.14687e-014 -1.59028e-015
lhumerus -3.05968 -4.32147 88.2339
lradius 44.5719
lwrist 8.72436
lhand -14.194 43.9397
lfingers 7.12502
lthumb 11.9421 73.5791
rfemur -32.6037 3.16572 13.5575
rtibia 20.5496
rfoot -7.42652 -4.14566
rtoes 2.09289
lfemur 11.4997 -2.49003 -28.8402
ltibia 15.5677
lfoot -12.2529 -15.3281
ltoes 0.847214
286
root 7.28073 16.1207 -0.167966 -261.4 83.4306 -268.931
lowerback -3.72797 -3.30685 -9.29624
upperback 3.88467 -3.6062 -1.85885
thorax 6.67014 -2.12039 2.88145
lowerneck -8.50766 1.22364 11.3291
upperneck 21.0668 0.585263 -2.08728
head 7.98391 1.10294 -2.51119
rclavicle -7.58364e-014 1.27222e-014
rhumerus -34.3586 -20.3003 -80.4343
rradius 13.5234
rwrist 20.3563
rhand -19.2897 34.0883
rfingers 7.12502
rthumb 7.02547 4.22485
lclavicle -7.58364e-014 1.27222e-014
lhumerus -3.36095 -4.36213 88.4414
lradius 43.9759
lwrist 8.62457
lhand -14.2287 43.6942
lfingers 7.12502
lthumb 11.9086 73.3356
rfemur -32.937 2.66191 14.0509
rtibia 21.9646
rfoot -6.29102 -3.38011
rtoes 5.02916
lfemur 11.9924 -2.78296 -28.5334
ltibia 15.6203
lfoot -11.0934 -15.8806
ltoes 1.10518
287
root 7.45356 16.1224 -0.162113 -260.071 83.8084 -267.643
lowerback -3.85979 -3.10868 -8.62076
upperback 4.10526 -3.3528 -1.93608
thorax 6.89609 -1.97467 2.44219
lowerneck -9.4289 1.10332 11.7326
upperneck 21.3733 0.210672 -2.07115
head 8.23285 0.966617 -2.61086
rclavicle 1.41137e-014 3.69739e-014
rhumerus -34.1566 -21.7995 -80.1394
rradius 13.4118
rwrist 21.22
rhand -19.3351 33.7892
rfingers 7.12502
rthumb 6.98164 3.92435
lclavicle 1.41137e-014 3.69739e-014
lhumerus -2.99842 -5.16897 88.5098
lradius 43.0203
lwrist 8.61403
lhand -14.3519 43.1952
lfingers 7.12502
lthumb 11.7898 72.8434
rfemur -33.1805 2.6617 14.4629
rtibia 23.1952
rfoot -5.68284 -3.00467
rtoes 5.56313
lfemur 12.248 -2.87876 -28.1231
ltibia 16.0373
lfoot -10.0426 -16.2813
ltoes 1.50809
288
root 7.62277 16.1155 -0.155053 -259.585 84.218 -267.128
lowerback -3.93996 -3.32171 -8.39893
upperback 3.8817 -3.70058 -1.50763
thorax 6.75205 -2.14447 2.7345
lowerneck -8.56727 1.15366 11.0783
upperneck 21.4187 0.519102 -2.03497
head 8.10502 1.07347 -2.46157
rclavicle 6.06293e-015 7.15625e-015
rhumerus -34.3394 -21.0232 -79.6282
rradius 13.1614
rwrist 21.4679
rhand -19.2957 33.6319
rfingers 7.12502
rthumb 7.0197 3.76825
lclavicle 6.06293e-015 7.15625e-015
lhumerus -3.89457 -3.96876 89.0763
lradius 42.2491
lwrist 8.17959
lhand -14.455 43.1035
lfingers 7.12502
lthumb 11.6904 72.7573
rfemur -33.1581 2.92113 14.8122
rtibia 24.2494
rfoot -4.76926 -3.03809
rtoes 4.79484
lfemur 12.2611 -2.76374 -27.6801
ltibia 16.9925
lfoot -8.88177 -16.5811
ltoes 2.80795
289
root 7.797 16.1049 -0.149946 -257.918 84.4698 -265.321
lowerback -3.83447 -3.52151 -8.23793
upperback 3.76213 -4.02341 -1.2049
thorax 6.60918 -2.30121 2.93737
lowerneck -8.32651 1.2189 10.7709
upperneck 21.6495 0.716877 -2.11352
head 8.14768 1.14727 -2.42089
rclavicle 1.19271e-014 -1.94809e-014
rhumerus -34.4188 -21.0136 -79.026
rradius 12.8434
rwrist 22.2444
rhand -19.2856 33.6072
rfingers 7.12502
rthumb 7.02947 3.7439
lclavicle 1.19271e-014 -1.94809e-014
lhumerus -4.74965 -2.93746 89.5114
lradius 41.5263
lwrist 7.78383
lhand -14.3842 43.3839
lfingers 7.12502
lthumb 11.7586 73.0339
rfemur -32.9311 2.84941 15.1261
rtibia 25.218
rfoot -3.57426 -2.80502
rtoes 5.466
lfemur 12.1558 -2.6921 -27.3778
ltibia 18.4589
lfoot -7.22997 -16.6464
ltoes 4.94773
290
root 7.97459 16.0974 -0.14474 -255.945 84.6843 -263.234
lowerback -3.54436 -3.31305 -7.69927
upperback 3.67679 -3.80326 -1.38188
thorax 6.26752 -2.15244 2.50194
lowerneck -8.60353 1.03108 11.4271
upperneck 21.9486 0.320402 -2.12335
head 8.27946 1.0272 -2.5723
rclavicle -4.17448e-015 -1.43125e-014
rhumerus -34.912 -23.3432 -78.0586
rradius 12.4262
rwrist 24.138
rhand -19.252 33.6045
rfingers 7.12502
rthumb 7.06192 3.74227
lclavicle -4.17448e-015 -1.43125e-014
lhumerus -5.38163 -3.61225 89.572
lradius 40.5977
lwrist 7.73427
lhand -14.4308 43.5533
lfingers 7.12502
lthumb 11.7137 73.2058
rfemur -32.7083 2.48726 15.5736
rtibia 26.1795
rfoot -3.92409 -1.65181
rtoes 4.9484
lfemur 11.8815 -2.53824 -27.08
ltibia 20.2366
lfoot -5.64133 -16.7037
ltoes 6.5422
291
root 8.14887 16.0958 -0.139316 -253.813 85.134 -261.119
lowerback -3.86283 -3.92515 -7.70389
upperback 3.36174 -4.66662 -0.65529
thorax 6.27002 -2.59757 3.16082
lowerneck -6.64631 1.36704 10.2652
upperneck 21.466 1.26554 -2.25112
head 7.80953 1.3648 -2.33524
rclavicle -1.54058e-015 5.96354e-015
rhumerus -34.7681 -21.8145 -77.3868
rradius 11.8906
rwrist 24.9222
rhand -19.1157 33.5305
rfingers 7.12502
rthumb 7.19346 3.67279
lclavicle -1.54058e-015 5.96354e-015
lhumerus -6.78313 -1.13169 90.1058
lradius 39.812
lwrist 7.26945
lhand -14.7866 43.5349
lfingers 7.12502
lthumb 11.3706 73.2066
rfemur -32.5745 2.07346 16.3372
rtibia 27.0988
rfoot -5.07669 -1.45288
rtoes 0.892959
lfemur 11.2933 -2.15274 -26.4816
ltibia 22.2069
lfoot -4.4173 -17.2533
ltoes 7.11408
292
root 8.32476 16.1026 -0.133634 -250.751 85.6136 -258.089
lowerback -3.97803 -3.64615 -6.80965
upperback 3.50495 -4.33223 -0.751271
thorax 6.36208 -2.39774 2.59264
lowerneck -7.88203 1.16027 10.6661
upperneck 22.1874 0.731482 -2.08492
head 8.24734 1.18051 -2.39683
rclavicle 2.77802e-014 1.98785e-015
rhumerus -34.7612 -24.1526 -76.5884
rradius 11.5376
rwrist 26.5531
rhand -19.1789 33.832
rfingers 7.12502
rthumb 7.13251 3.97223
lclavicle 2.77802e-014 1.98785e-015
lhumerus -6.94798 -1.79054 90.2424
lradius 38.5476
lwrist 6.91749
lhand -15.8249 42.3587
lfingers 7.12502
lthumb 10.3691 72.083
rfemur -32.3716 1.7228 17.1117
rtibia 27.9321
rfoot -5.70068 -1.56738
rtoes 1.16218
lfemur 10.4872 -1.74959 -25.8179
ltibia 24.3792
lfoot -2.04553 -17.7959
ltoes 10.3689
293
root 8.50038 16.1105 -0.121967 -247.34 85.9565 -254.68
lowerback -4.24458 -3.28932 -6.07822
upperback 3.77021 -3.85714 -0.982345
thorax 6.6751 -2.13505 1.97452
lowerneck -8.76765 0.922891 11.6486
upperneck 22.4332 0.135012 -2.18424
head 8.46224 0.976982 -2.65227
rclavicle 3.34952e-014 -7.95139e-016
rhumerus -34.8406 -26.5678 -76.089
rradius 11.4825
rwrist 27.777
rhand -19.2195 33.7832
rfingers 7.12502
rthumb 7.09327 3.92202
lclavicle 3.34952e-014 -7.95139e-016
lhumerus -6.8521 -2.64036 90.2654
lradius 37.0473
lwrist 6.4959
lhand -16.2281 41.6519
lfingers 7.12502
lthumb 9.98014 71.3953
rfemur -32.0715 1.66481 17.6695
rtibia 28.6387
rfoot -6.18771 -1.79781
rtoes 2.01129
lfemur 9.55108 -1.41865 -25.2438
ltibia 26.7397
lfoot 0.202395 -18.1545
ltoes 13.8103
294
root 8.67019 16.1147 -0.10666 -242.83 86.2593 -250.209
lowerback -4.36823 -3.51869 -5.98814
upperback 3.6405 -4.19746 -0.603887
thorax 6.65931 -2.3095 2.27831
lowerneck -8.15338 1.07885 11.3825
upperneck 22.3641 0.517045 -2.30876
head 8.3494 1.12437 -2.61275
rclavicle 4.87519e-014 3.37934e-015
rhumerus -34.7368 -26.0818 -75.8164
rradius 11.4399
rwrist 27.9919
rhand -19.0794 33.3293
rfingers 7.12502
rthumb 7.2285 3.47277
lclavicle 4.87519e-014 3.37934e-015
lhumerus -7.58915 -1.23433 90.6191
lradius 35.8299
lwrist 5.984
lhand -13.6198 44.5079
lfingers 7.12502
lthumb 12.4957 74.1143
rfemur -31.7314 1.78976 18.1686
rtibia 29.2147
rfoot -6.39185 -2.22831
rtoes 1.6378
lfemur 8.44904 -1.08929 -24.6115
ltibia 29.2213
lfoot 2.04199 -18.4498
ltoes 17.5275
295
root 8.83634 16.1224 -0.0933488 -237.036 86.6108 -244.347
lowerback -4.04817 -3.71864 -5.81614
upperback 3.26608 -4.5467 -0.172571
thorax 6.1295 -2.47243 2.62971
lowerneck -7.5269 1.13172 10.9421
upperneck 22.6526 0.772514 -2.33091
head 8.34427 1.22753 -2.52587
rclavicle 8.32908e-014 6.16232e-015
rhumerus -35.0362 -25.4144 -75.2867
rradius 11.3095
rwrist 28.1942
rhand -18.8999 33.3274
rfingers 7.12502
rthumb 7.4018 3.47693
lclavicle 8.32908e-014 6.16232e-015
lhumerus -8.84003 0.301195 91.0297
lradius 34.6803
lwrist 5.37874
lhand -15.2921 43.8034
lfingers 7.12502
lthumb 10.883 73.5014
rfemur -31.2045 1.90884 18.7696
rtibia 29.6848
rfoot -6.42218 -2.69114
rtoes 0.976357
lfemur 7.40348 -0.828716 -23.9045
ltibia 31.7771
lfoot 3.71315 -18.7305
ltoes 19.3748
296
root 9.00286 16.1367 -0.0791303 -229.495 86.9047 -236.627
lowerback -4.33848 -3.48513 -5.25088
upperback 3.67398 -4.23852 -0.187288
thorax 6.65241 -2.31101 2.30142
lowerneck -8.14746 0.928332 11.2241
upperneck 22.6779 0.317498 -2.16767
head 8.43943 1.04876 -2.56028
rclavicle 1.14301e-014 -1.59028e-015
rhumerus -34.6483 -27.0227 -74.9934
rradius 11.1896
rwrist 28.9946
rhand -18.7823 33.7684
rfingers 7.12502
rthumb 7.51527 3.92188
lclavicle 1.14301e-014 -1.59028e-015
lhumerus -8.69022 0.274287 91.2139
lradius 33.1532
lwrist 4.77907
lhand -12.9545 44.1127
lfingers 7.12502
lthumb 13.137 73.6789
rfemur -30.4971 1.90483 19.4213
rtibia 30.0461
rfoot -6.9945 -2.97227
rtoes 0.852828
lfemur 6.46532 -0.725972 -23.219
ltibia 34.374
lfoot 5.09943 -18.9881
ltoes 19.7096
297
root 9.16729 16.1496 -0.0655392 -220.545 86.9667 -227.533
lowerback -3.47526 -3.49144 -5.02622
upperback 3.20332 -4.34374 0.0320649
thorax 5.66481 -2.33736 2.4666
lowerneck -8.05807 0.837979 10.9307
upperneck 23.1319 0.227147 -1.96373
head 8.57004 1.02791 -2.45455
rclavicle 4.57205e-015 1.59028e-015
rhumerus -35.3344 -26.8446 -74.4209
rradius 11.2135
rwrist 29.2154
rhand -18.9687 34.261
rfingers 7.12502
rthumb 7.33534 4.4082
lclavicle 4.57205e-015 1.59028e-015
lhumerus -9.95882 1.27762 91.4871
lradius 31.776
lwrist 4.03066
lhand -13.1754 43.5102
lfingers 7.12502
lthumb 12.9241 73.0899
rfemur -29.7615 1.63227 19.9844
rtibia 30.2884
rfoot -7.69352 -3.18972
rtoes -0.508954
lfemur 5.42008 -0.732864 -22.6729
ltibia 36.9922
lfoot 6.28908 -19.4278
ltoes 19.5577
